D:\school\WTK\thesis\model\3dpredictsim\Results\batch_windlass\Pog_s1_tmt_aCst_d05_k800_WL30_ig24_pas_GRF.mot
nRows=30
nColumns=19

name D:\school\WTK\thesis\model\3dpredictsim\Results\batch_windlass\Pog_s1_tmt_aCst_d05_k800_WL30_ig24_pas_GRF.mot
datacolumns 19
datarows 30
range 0.0000000000 0.3156486884
endheader
time 	ground_force_vx	ground_force_vy	ground_force_vz	ground_force_px	ground_force_py	ground_force_pz	1_ground_force_vx	1_ground_force_vy	1_ground_force_vz	1_ground_force_px	1_ground_force_py	1_ground_force_pz	ground_torque_x	ground_torque_y	ground_torque_z	1_ground_torque_x	1_ground_torque_y	1_ground_torque_z
        0.0000000000	      -79.2531583512	       56.3156910648	       18.4551508294	        0.1358542558	        0.0000000000	        0.0446210965	       86.4643229673	      426.0049243604	       -0.5692592178	       -0.3294886056	        0.0000000000	       -0.0332086281	        0.0000000000	        0.0000000000	        0.0000000000	        0.0000000000	        0.0000000000	        0.0000000000	
        0.0108844375	     -133.1957326912	      117.5375530040	       39.5810313200	        0.1478731244	        0.0000000000	        0.0426203058	       60.1864806406	      329.8627549026	       -7.5784774661	       -0.3231649606	        0.0000000000	       -0.0305953401	        0.0000000000	        0.0000000000	        0.0000000000	        0.0000000000	        0.0000000000	        0.0000000000	
        0.0217688751	     -118.4334562733	      249.6764644966	       55.6227750444	        0.1597120724	        0.0000000000	        0.0425366776	       30.8117801954	      230.2964530336	      -14.7081854756	       -0.3128649431	        0.0000000000	       -0.0256861358	        0.0000000000	        0.0000000000	        0.0000000000	        0.0000000000	        0.0000000000	        0.0000000000	
        0.0326533126	      -72.7839470069	      522.4744670928	        6.3231910337	        0.1712761424	        0.0000000000	        0.0440712706	       10.9989044207	      161.2787918547	      -16.3278254173	       -0.3013207909	        0.0000000000	       -0.0190863706	        0.0000000000	        0.0000000000	        0.0000000000	        0.0000000000	        0.0000000000	        0.0000000000	
        0.0435377501	      -84.0839744942	      753.7604001761	      -12.7659144443	        0.1780137403	        0.0000000000	        0.0453523404	        1.3815881816	      129.4838423676	      -13.1901193078	       -0.3018672687	        0.0000000000	       -0.0191510848	        0.0000000000	        0.0000000000	        0.0000000000	        0.0000000000	        0.0000000000	        0.0000000000	
        0.0544221877	     -109.0527584878	      885.2426994552	      -19.1159142064	        0.1845253330	        0.0000000000	        0.0458497014	       -4.6175594826	       86.8293734269	      -10.0553566150	       -0.3017509719	        0.0000000000	       -0.0190233425	        0.0000000000	        0.0000000000	        0.0000000000	        0.0000000000	        0.0000000000	        0.0000000000	
        0.0653066252	     -128.1668695625	      948.9626587963	      -18.0925996005	        0.1916531759	        0.0000000000	        0.0456711573	      -12.3791242749	       35.6255560954	       -5.3909581435	       -0.3028571097	        0.0000000000	       -0.0189476767	        0.0000000000	        0.0000000000	        0.0000000000	        0.0000000000	        0.0000000000	        0.0000000000	
        0.0761910627	     -125.4395312821	      950.6113353620	      -16.9921948081	        0.1984676308	        0.0000000000	        0.0450696552	        0.1268099308	       -0.1273770763	        0.0028564807	        0.0000000000	        0.0000000000	        0.0000000000	        0.0000000000	        0.0000000000	        0.0000000000	        0.0000000000	        0.0000000000	        0.0000000000	
        0.0870755002	     -109.3505355157	      895.7717825573	      -16.0037834353	        0.2026748629	        0.0000000000	        0.0445870501	        0.0002802474	       -0.0002344727	       -0.0000108685	        0.0000000000	        0.0000000000	        0.0000000000	        0.0000000000	        0.0000000000	        0.0000000000	        0.0000000000	        0.0000000000	        0.0000000000	
        0.0979599378	      -91.5653899588	      826.5957628389	      -16.1209674870	        0.2060043671	        0.0000000000	        0.0442648814	        0.0000626924	       -0.0000457414	       -0.0000034621	        0.0000000000	        0.0000000000	        0.0000000000	        0.0000000000	        0.0000000000	        0.0000000000	        0.0000000000	        0.0000000000	        0.0000000000	
        0.1088443753	      -76.9625588230	      765.9188874117	      -16.2190732564	        0.2091042519	        0.0000000000	        0.0440706516	        0.0002325023	       -0.0001524790	       -0.0000149526	        0.0000000000	        0.0000000000	        0.0000000000	        0.0000000000	        0.0000000000	        0.0000000000	        0.0000000000	        0.0000000000	        0.0000000000	
        0.1197288128	      -64.3417184536	      718.0901276260	      -16.5793329668	        0.2121626587	        0.0000000000	        0.0439676003	        0.0045680227	       -0.0027516206	       -0.0003226907	        0.0000000000	        0.0000000000	        0.0000000000	        0.0000000000	        0.0000000000	        0.0000000000	        0.0000000000	        0.0000000000	        0.0000000000	
        0.1306132504	      -53.3079885322	      680.1729938210	      -17.5534136612	        0.2154108040	        0.0000000000	        0.0439224038	       -0.0264351859	        0.0148566013	        0.0020070323	        0.0000000000	        0.0000000000	        0.0000000000	        0.0000000000	        0.0000000000	        0.0000000000	        0.0000000000	        0.0000000000	        0.0000000000	
        0.1414976879	      -43.8872291584	      649.6175237084	      -18.3669770575	        0.2189564164	        0.0000000000	        0.0439181699	       -0.0275764206	        0.0146281127	        0.0022275037	        0.0000000000	        0.0000000000	        0.0000000000	        0.0000000000	        0.0000000000	        0.0000000000	        0.0000000000	        0.0000000000	        0.0000000000	
        0.1523821254	      -35.6655092513	      625.9061543731	      -19.3839253930	        0.2232075841	        0.0000000000	        0.0439119894	       -0.0170357206	        0.0085976389	        0.0014506595	        0.0000000000	        0.0000000000	        0.0000000000	        0.0000000000	        0.0000000000	        0.0000000000	        0.0000000000	        0.0000000000	        0.0000000000	
        0.1632665630	      -29.9285932209	      608.4085276875	      -20.3614304035	        0.2281567613	        0.0000000000	        0.0438662140	       -0.0121583802	        0.0058759604	        0.0010854929	        0.0000000000	        0.0000000000	        0.0000000000	        0.0000000000	        0.0000000000	        0.0000000000	        0.0000000000	        0.0000000000	        0.0000000000	
        0.1741510005	      -25.8917244358	      596.2282740850	      -20.7542393692	        0.2333739777	        0.0000000000	        0.0437858953	       -0.0111327351	        0.0051789562	        0.0010329056	        0.0000000000	        0.0000000000	        0.0000000000	        0.0000000000	        0.0000000000	        0.0000000000	        0.0000000000	        0.0000000000	        0.0000000000	
        0.1850354380	      -22.2053334020	      588.2961612845	      -20.9506131449	        0.2389084348	        0.0000000000	        0.0436620977	       -0.0132498658	        0.0059573678	        0.0012632497	        0.0000000000	        0.0000000000	        0.0000000000	        0.0000000000	        0.0000000000	        0.0000000000	        0.0000000000	        0.0000000000	        0.0000000000	
        0.1959198756	      -20.2985941759	      583.6026595238	      -20.8361770436	        0.2446095575	        0.0000000000	        0.0434910372	       -0.0197697741	        0.0086220615	        0.0019148722	        0.0000000000	        0.0000000000	        0.0000000000	        0.0000000000	        0.0000000000	        0.0000000000	        0.0000000000	        0.0000000000	        0.0000000000	
        0.2068043131	      -19.1399535431	      581.2984609716	      -20.2557471595	        0.2501777738	        0.0000000000	        0.0432994517	       -0.0348050786	        0.0147755863	        0.0033984467	        0.0000000000	        0.0000000000	        0.0000000000	        0.0000000000	        0.0000000000	        0.0000000000	        0.0000000000	        0.0000000000	        0.0000000000	
        0.2176887506	      -17.4996336182	      580.4244071048	      -19.5671087906	        0.2557448858	        0.0000000000	        0.0430822664	       -0.0672086206	        0.0278679474	        0.0065490508	        0.0000000000	        0.0000000000	        0.0000000000	        0.0000000000	        0.0000000000	        0.0000000000	        0.0000000000	        0.0000000000	        0.0000000000	
        0.2285731881	      -15.8334777222	      579.6962286973	      -18.8935465652	        0.2612335627	        0.0000000000	        0.0428404041	       -0.1324382171	        0.0538186934	        0.0127700700	        0.0000000000	        0.0000000000	        0.0000000000	        0.0000000000	        0.0000000000	        0.0000000000	        0.0000000000	        0.0000000000	        0.0000000000	
        0.2394576257	      -13.9149302010	      578.1856888992	      -18.6027167968	        0.2665729389	        0.0000000000	        0.0425848674	       -0.2505276563	        0.1001102486	        0.0238060686	        0.0000000000	        0.0000000000	        0.0000000000	        0.0000000000	        0.0000000000	        0.0000000000	        0.0000000000	        0.0000000000	        0.0000000000	
        0.2503420632	      -11.6050995106	      575.3562313256	      -18.4254380676	        0.2717751222	        0.0000000000	        0.0423226586	       -0.4343004975	        0.1712255725	        0.0405249249	        0.0000000000	        0.0000000000	        0.0000000000	        0.0000000000	        0.0000000000	        0.0000000000	        0.0000000000	        0.0000000000	        0.0000000000	
        0.2612265007	       -9.0912998180	      571.1508500323	      -18.2083067717	        0.2768708205	        0.0000000000	        0.0420528646	       -0.6723868673	        0.2623787681	        0.0614202084	        0.0000000000	        0.0000000000	        0.0000000000	        0.0000000000	        0.0000000000	        0.0000000000	        0.0000000000	        0.0000000000	        0.0000000000	
        0.2721109383	       -6.2653473652	      566.0274283942	      -17.9188827742	        0.2819434129	        0.0000000000	        0.0417674771	       -0.9246254207	        0.3581042962	        0.0822913672	        0.0000000000	        0.0000000000	        0.0000000000	        0.0000000000	        0.0000000000	        0.0000000000	        0.0000000000	        0.0000000000	        0.0000000000	
        0.2829953758	       -2.9651452477	      560.0981814895	      -17.1648692049	        0.2870074402	        0.0000000000	        0.0414658699	       -1.1414603633	        0.4397161008	        0.0980128988	        0.0000000000	        0.0000000000	        0.0000000000	        0.0000000000	        0.0000000000	        0.0000000000	        0.0000000000	        0.0000000000	        0.0000000000	
        0.2938798133	        0.9053430265	      553.7356378942	      -15.8413173065	        0.2920887804	        0.0000000000	        0.0411429667	       -1.2915131042	        0.4955868726	        0.1051937605	        0.0000000000	        0.0000000000	        0.0000000000	        0.0000000000	        0.0000000000	        0.0000000000	        0.0000000000	        0.0000000000	        0.0000000000	
        0.3047642509	        4.9540697353	      547.6965414049	      -13.8886417097	        0.2971588581	        0.0000000000	        0.0407977925	       -1.3724167167	        0.5250848892	        0.1032264923	        0.0000000000	        0.0000000000	        0.0000000000	        0.0000000000	        0.0000000000	        0.0000000000	        0.0000000000	        0.0000000000	        0.0000000000	
        0.3156486884	        8.7482721446	      543.0377809368	      -11.5737969524	        0.3021444056	        0.0000000000	        0.0404317805	       -1.3992996765	        0.5341680903	        0.0937158026	        0.0000000000	        0.0000000000	        0.0000000000	        0.0000000000	        0.0000000000	        0.0000000000	        0.0000000000	        0.0000000000	        0.0000000000	
